<?xml version="1.0" encoding="UTF-8"?>
<svg xmlns="http://www.w3.org/2000/svg" width="286" height="49" viewBox="0 0 286 49" fill="none">
  <path d="M0.944183 20.0225C0.944183 18.0427 1.29333 16.1794 2.10799 14.4326C2.80628 12.6857 3.8537 11.1718 5.13389 9.89075C6.41408 8.60972 7.92704 7.5616 9.67275 6.86286C11.4185 6.16412 13.2806 5.69829 15.259 5.69829C17.5866 5.69829 19.6815 6.28057 21.7764 7.32868C23.7548 8.37679 25.5006 9.77428 26.7807 11.5211V0.457734H29.6903V19.906C29.6903 21.8858 29.3411 23.8656 28.5265 25.496C27.8282 27.2428 26.7807 28.7567 25.5005 30.0378C24.2204 31.3188 22.7074 32.3669 20.9617 33.0657C19.216 33.7644 17.3539 34.2302 15.3754 34.2302C13.3969 34.2302 11.4185 33.8808 9.78913 33.0657C8.04342 32.3669 6.53047 31.3188 5.25028 30.0378C3.97009 28.7567 2.92266 27.2428 2.22437 25.496C1.40971 23.8656 0.944183 22.0023 0.944183 20.0225ZM3.85371 20.0225C3.85371 21.5364 4.20285 23.0504 4.78475 24.4479C5.36666 25.8453 6.18132 27.0099 7.22875 28.058C8.27618 29.1061 9.43999 29.9213 10.8366 30.5036C12.2331 31.0859 13.7461 31.4353 15.259 31.4353C16.772 31.4353 18.2849 31.0859 19.6815 30.5036C21.0781 29.9213 22.2419 29.1061 23.2893 28.058C24.3367 27.0099 25.1514 25.8453 25.7333 24.4479C26.3152 23.0504 26.6644 21.5364 26.6644 20.0225C26.6644 18.5085 26.3152 16.9946 25.7333 15.5971C25.1514 14.1996 24.3367 13.0351 23.2893 11.987C22.2419 10.9388 21.0781 10.1237 19.6815 9.54137C18.2849 8.95909 16.772 8.60971 15.259 8.60971C13.7461 8.60971 12.2331 8.95909 10.8366 9.54137C9.43999 10.1237 8.27618 10.9388 7.22875 11.987C6.18132 13.0351 5.36666 14.1996 4.78475 15.5971C4.20285 16.9946 3.85371 18.3921 3.85371 20.0225Z" fill="#CCCCCC"></path>
  <path d="M47.3801 5.69829C49.3586 5.69829 51.1043 6.04766 52.8501 6.86286C54.5958 7.5616 56.1087 8.60972 57.3889 9.89074C58.6691 11.1718 59.7165 12.6857 60.5312 14.4326C61.3459 16.1794 61.695 18.0427 61.695 20.0225H58.7855C58.7855 18.5085 58.4363 16.9946 57.8544 15.5971C57.2725 14.1996 56.4579 13.0351 55.4104 11.987C54.363 10.9388 53.1992 10.1237 51.8026 9.54137C50.4061 8.95909 48.8931 8.60971 47.3801 8.60971C45.8672 8.60971 44.3543 8.95909 42.9577 9.54137C41.5611 10.1237 40.3973 10.9388 39.3499 11.987C38.3024 13.0351 37.4878 14.1996 36.9059 15.5971C36.324 16.9946 35.9748 18.5085 35.9748 20.0225V34.3467H33.0653V20.0225C33.0653 18.0427 33.4144 16.1794 34.2291 14.4326C34.9274 12.6857 35.9748 11.1718 37.255 9.89074C38.5352 8.60972 40.0482 7.5616 41.7939 6.86286C43.4232 6.04766 45.2853 5.69829 47.3801 5.69829Z" fill="#CCCCCC"></path>
  <path d="M79.3849 31.4353C81.8289 31.4353 83.9237 30.7365 85.9022 29.4555C87.7643 28.1745 89.1609 26.4276 89.9756 24.2149H93.1178C92.6523 25.6124 91.954 27.0099 91.023 28.1745C90.0919 29.339 89.0445 30.3871 87.8807 31.3188C86.7169 32.2505 85.3203 32.9492 83.9238 33.415C82.5272 33.8809 81.0142 34.2302 79.3849 34.2302C77.4064 34.2302 75.428 33.8808 73.7986 33.0656C72.0529 32.3669 70.54 31.3188 69.2598 30.0378C67.9796 28.7567 66.9321 27.2428 66.2339 25.496C65.5356 23.7491 65.0701 21.8858 65.0701 19.906C65.0701 17.9263 65.4192 16.0629 66.2339 14.3161C66.9321 12.5692 67.9796 11.0553 69.2598 9.77428C70.54 8.49326 72.0529 7.44514 73.7986 6.7464C75.5443 6.04765 77.4064 5.58183 79.3849 5.58183C81.3634 5.58183 83.2255 5.9312 84.9712 6.7464C86.7169 7.44514 88.2299 8.49326 89.51 9.77428C90.7902 11.0553 91.8377 12.5692 92.5359 14.3161C93.2342 16.0629 93.6997 17.9263 93.6997 19.906V21.3035H67.9796C68.2123 22.701 68.6779 24.0985 69.3761 25.263C70.0744 26.4276 70.8891 27.5922 71.9365 28.4074C72.9839 29.339 74.1478 30.0378 75.4279 30.5036C76.5918 31.2023 77.8719 31.4353 79.3849 31.4353ZM79.3849 8.49325C77.9883 8.49325 76.5918 8.72618 75.3116 9.30846C74.0314 9.77429 72.8676 10.473 71.8201 11.4047C70.7727 12.3363 69.9581 13.3844 69.2598 14.549C68.5615 15.83 68.096 17.1111 67.8632 18.5085H90.7902C90.5575 17.1111 90.0919 15.7136 89.3937 14.549C88.6954 13.268 87.8807 12.2199 86.8333 11.4047C85.7858 10.473 84.622 9.77429 83.3419 9.30846C82.178 8.84263 80.7815 8.49325 79.3849 8.49325Z" fill="#CCCCCC"></path>
  <path d="M111.39 5.69829C113.368 5.69829 115.23 6.04766 116.976 6.86286C118.722 7.5616 120.235 8.60972 121.515 9.89074C122.795 11.1718 123.842 12.6857 124.541 14.4326C125.239 16.1794 125.704 18.0427 125.704 20.0225V34.3467H122.795V28.6403C121.515 30.3871 119.885 31.7846 117.791 32.8327C115.812 33.8808 113.601 34.4631 111.273 34.4631C109.295 34.4631 107.316 34.1138 105.687 33.2986C103.941 32.5998 102.428 31.5517 101.148 30.2707C99.8679 28.9897 98.8205 27.4757 98.1222 25.7289C97.4239 23.982 96.9584 22.1187 96.9584 20.1389C96.9584 18.1592 97.3076 16.2959 98.1222 14.549C98.8205 12.8022 99.8679 11.2882 101.148 10.0072C102.428 8.72617 103.941 7.67806 105.687 6.97932C107.549 6.04767 109.411 5.69829 111.39 5.69829ZM111.39 31.4353C112.903 31.4353 114.416 31.0859 115.812 30.5036C117.209 29.9213 118.373 29.1061 119.42 28.058C120.467 27.0099 121.282 25.8453 121.864 24.4478C122.446 23.0504 122.795 21.5364 122.795 20.0225C122.795 18.5085 122.446 16.9946 121.864 15.5971C121.282 14.1996 120.467 13.0351 119.42 11.987C118.373 10.9388 117.209 10.1237 115.812 9.54137C114.416 8.95909 112.903 8.60971 111.39 8.60971C109.877 8.60971 108.364 8.95909 106.967 9.54137C105.571 10.1237 104.407 10.9388 103.359 11.987C102.312 13.0351 101.497 14.1996 100.915 15.5971C100.333 16.9946 99.9843 18.5085 99.9843 20.0225C99.9843 21.5364 100.333 23.0504 100.915 24.4478C101.497 25.8453 102.312 27.0099 103.359 28.058C104.407 29.1061 105.571 29.9213 106.967 30.5036C108.364 31.0859 109.877 31.4353 111.39 31.4353Z" fill="#CCCCCC"></path>
  <path d="M218.926 3.36915V0.457733H221.835V3.36915H218.926ZM218.926 34.3467V5.69829H221.835V34.3467H218.926Z" fill="#CCCCCC"></path>
  <path d="M253.84 20.2554V34.2302C253.84 36.21 253.491 37.9568 252.676 39.7037C251.978 41.4505 250.93 42.9645 249.65 44.2455C248.37 45.5265 246.857 46.5746 245.111 47.3898C243.366 48.205 241.503 48.5544 239.525 48.5544C237.547 48.5544 235.801 48.205 234.055 47.3898C232.309 46.5746 230.796 45.643 229.516 44.2455C228.236 42.9645 227.189 41.4505 226.374 39.7037C225.559 37.9568 225.21 36.21 225.21 34.2302H228.12C228.12 35.7442 228.469 37.2581 229.051 38.6556C229.633 40.0531 230.447 41.2176 231.495 42.2657C232.542 43.3138 233.706 44.1291 235.103 44.7113C236.499 45.2936 238.012 45.643 239.525 45.643C241.154 45.643 242.667 45.2936 244.064 44.7113C245.46 44.1291 246.624 43.3138 247.672 42.2657C248.719 41.2176 249.534 40.0531 250.116 38.6556C250.698 37.2581 250.93 35.7442 250.93 34.2302V28.5238C249.65 30.2707 248.021 31.6682 246.042 32.7163C244.064 33.7644 241.853 34.3467 239.409 34.3467C237.43 34.3467 235.684 33.9973 233.939 33.1821C232.193 32.4834 230.68 31.4353 229.4 30.1542C228.12 28.8732 227.072 27.3593 226.258 25.6124C225.443 23.8656 225.094 22.0023 225.094 20.0225C225.094 18.0427 225.443 16.1794 226.258 14.4326C227.072 12.6857 228.003 11.1718 229.4 9.89074C230.68 8.60972 232.193 7.5616 233.939 6.86286C235.684 6.16412 237.43 5.69829 239.409 5.69829C241.387 5.69829 243.249 6.04766 244.995 6.86286C246.741 7.5616 248.254 8.60972 249.534 9.89074C250.814 11.1718 251.861 12.6857 252.56 14.4326C253.258 16.1794 253.723 18.0427 253.723 20.0225V20.2554H253.84ZM239.525 31.4353C241.154 31.4353 242.667 31.0859 244.064 30.5036C245.46 29.9213 246.624 29.1061 247.672 28.058C248.719 27.0099 249.534 25.8453 250.116 24.4478C250.698 23.0504 250.93 21.5364 250.93 20.0225C250.93 18.5085 250.698 16.9946 250.116 15.5971C249.534 14.1996 248.719 13.0351 247.672 11.987C246.624 10.9388 245.46 10.1237 244.064 9.54137C242.667 8.95909 241.154 8.60971 239.525 8.60971C238.012 8.60971 236.499 8.95909 235.103 9.54137C233.706 10.1237 232.542 10.9388 231.495 11.987C230.447 13.0351 229.633 14.1996 229.051 15.5971C228.469 16.9946 228.12 18.5085 228.12 20.0225C228.12 21.5364 228.469 23.0504 229.051 24.4478C229.633 25.8453 230.447 27.0099 231.495 28.058C232.542 29.1061 233.706 29.9213 235.103 30.5036C236.499 31.0859 238.012 31.4353 239.525 31.4353Z" fill="#CCCCCC"></path>
  <path d="M271.53 5.69829C273.508 5.69829 275.254 6.04766 277 6.86286C278.745 7.67806 280.258 8.72617 281.538 10.0072C282.819 11.2882 283.866 12.8022 284.681 14.549C285.495 16.2959 285.845 18.0427 285.845 20.0225V34.3467H282.935V20.0225C282.935 18.5085 282.586 16.9946 282.004 15.5971C281.422 14.1996 280.607 13.0351 279.56 11.987C278.513 10.9388 277.349 10.1237 275.952 9.54137C274.556 8.95909 273.043 8.60971 271.53 8.60971C270.017 8.60971 268.504 8.95909 267.107 9.54137C265.711 10.1237 264.547 10.9388 263.499 11.987C262.452 13.0351 261.637 14.1996 261.055 15.5971C260.474 16.9946 260.124 18.5085 260.124 20.0225V34.3467H257.331V20.0225C257.331 18.0427 257.68 16.2959 258.495 14.549C259.193 12.8022 260.241 11.2882 261.521 10.0072C262.801 8.72617 264.314 7.67806 266.06 6.86286C267.689 6.04766 269.551 5.69829 271.53 5.69829Z" fill="#CCCCCC"></path>
  <path d="M184.71 40.6353C188.18 40.6353 190.994 37.8198 190.994 34.3467C190.994 30.8735 188.18 28.058 184.71 28.058C181.239 28.058 178.425 30.8735 178.425 34.3467C178.425 37.8198 181.239 40.6353 184.71 40.6353Z" fill="#009EE3"></path>
  <path d="M179.589 15.5971C180.171 16.9946 180.404 18.5085 180.404 20.0225V27.4757C181.567 27.0099 182.731 26.6605 183.895 26.5441V20.0225C183.895 18.0427 183.313 16.1794 182.615 14.4326C181.916 12.6857 180.753 11.1718 179.472 9.89074C178.192 8.60972 176.679 7.5616 174.934 6.86286C173.188 6.16412 171.326 5.69829 169.347 5.69829C167.951 5.69829 166.671 5.9312 165.39 6.28058C164.11 6.62995 162.83 7.21223 161.783 8.02743C160.619 8.72617 159.688 9.65782 158.757 10.5895C157.826 11.5211 157.127 12.5692 156.545 13.7338C155.964 12.5692 155.265 11.5211 154.334 10.5895C153.403 9.65782 152.472 8.72617 151.308 8.02743C150.144 7.32869 148.981 6.7464 147.7 6.28058C146.42 5.9312 145.024 5.69829 143.627 5.69829C141.649 5.69829 139.903 6.04766 138.157 6.86286C136.412 7.5616 134.899 8.60972 133.618 9.89074C132.338 11.1718 131.291 12.6857 130.476 14.4326C129.661 16.1794 129.312 18.0427 129.312 20.0225V34.2302H132.804V20.0225C132.804 18.5085 132.804 16.9946 133.386 15.5971C133.968 14.1996 134.666 13.0351 135.713 11.987C136.761 10.9388 137.924 10.1237 139.321 9.54137C140.718 8.95909 142.114 8.60971 143.744 8.60971C145.256 8.60971 146.769 8.95909 148.166 9.54137C149.563 10.1237 150.726 10.9388 151.774 11.987C152.821 13.0351 153.52 14.1996 154.101 15.5971C154.683 16.9946 154.916 18.5085 154.916 20.0225V34.2302H158.408V20.0225C158.408 18.5085 158.524 16.9946 159.106 15.5971C159.688 14.1996 160.386 13.0351 161.433 11.987C162.481 10.9388 163.645 10.1237 165.041 9.54137C166.438 8.95909 167.834 8.60971 169.464 8.60971C170.977 8.60971 172.49 8.95909 173.886 9.54137C175.283 10.1237 176.447 10.9388 177.378 11.987C178.192 12.9186 178.891 14.1996 179.589 15.5971Z" fill="#CCCCCC"></path>
  <path d="M194.951 8.60971H215.201V5.11601H194.951C193.787 5.11601 192.74 5.58184 191.809 6.04766C190.878 6.39704 189.947 7.09578 189.248 7.79452C188.55 8.49326 187.968 9.42491 187.503 10.3566C187.154 11.2882 186.921 12.3363 186.921 13.3844C186.921 14.4326 187.154 15.4807 187.503 16.4123C187.852 17.344 188.434 18.2756 189.248 18.9744C189.947 19.6731 190.878 20.2554 191.809 20.7212C192.74 21.187 193.787 21.42 194.951 21.42H207.869C209.15 21.42 210.313 21.8858 211.244 22.8174C212.175 23.7491 212.757 24.9137 212.757 26.3111C212.757 27.7086 212.292 29.2226 211.244 30.1542C210.313 31.0859 209.15 31.9011 207.869 31.9011H192.158C192.507 31.9011 192.74 33.0656 192.74 34.2302H207.869C208.917 34.2302 209.964 33.9973 210.895 33.6479C211.826 33.1821 212.641 32.5998 213.339 31.9011C214.038 31.2023 214.62 30.3871 214.969 29.339C215.318 28.4074 215.551 27.3593 215.551 26.3111C215.551 25.263 215.318 24.2149 214.969 23.2833C214.62 22.3516 214.038 21.5364 213.339 20.8377C212.641 20.1389 211.826 19.906 210.895 19.4402C209.964 19.0908 208.917 19.0908 207.869 19.0908H194.951C193.555 19.0908 192.274 18.2756 191.343 17.344C190.296 16.2959 189.83 15.0148 189.83 13.5009C189.83 11.987 190.296 10.8224 191.343 10.0072C192.274 9.07554 193.438 8.60971 194.951 8.60971Z" fill="#CCCCCC"></path>
</svg>
